<?xml version="1.0" standalone="no"?><!-- Generator: Gravit.io --><svg xmlns="http://www.w3.org/2000/svg" xmlns:xlink="http://www.w3.org/1999/xlink" style="isolation:isolate" viewBox="0 0 128 128" width="128" height="128"><defs><clipPath id="_clipPath_OYwE6buuGI2sy62lm40rmWjD9bMLYaq6"><rect width="128" height="128"/></clipPath></defs><g clip-path="url(#_clipPath_OYwE6buuGI2sy62lm40rmWjD9bMLYaq6)"><defs><filter id="xHijq3D9hC2MrdjzzMOhaPl5xjOS4HkX" x="-200%" y="-200%" width="400%" height="400%" filterUnits="objectBoundingBox" color-interpolation-filters="sRGB"><feGaussianBlur xmlns="http://www.w3.org/2000/svg" in="SourceGraphic" stdDeviation="2.146804531419514"/><feOffset xmlns="http://www.w3.org/2000/svg" dx="0" dy="0" result="pf_100_offsetBlur"/><feFlood xmlns="http://www.w3.org/2000/svg" flood-color="#000000" flood-opacity="0.65"/><feComposite xmlns="http://www.w3.org/2000/svg" in2="pf_100_offsetBlur" operator="in" result="pf_100_dropShadow"/><feBlend xmlns="http://www.w3.org/2000/svg" in="SourceGraphic" in2="pf_100_dropShadow" mode="normal"/></filter></defs><g filter="url(#xHijq3D9hC2MrdjzzMOhaPl5xjOS4HkX)"><path d=" M 63 14 L 115 69 L 63 51 L 14 69 L 63 14 Z " fill="rgb(255,255,255)"/></g><g><defs><filter id="pLgbywqHz9mwn9FPyBA7q2wZd9Bq4KMm" x="-200%" y="-200%" width="400%" height="400%" filterUnits="objectBoundingBox" color-interpolation-filters="sRGB"><feGaussianBlur xmlns="http://www.w3.org/2000/svg" in="SourceGraphic" stdDeviation="2.146804531419514"/><feOffset xmlns="http://www.w3.org/2000/svg" dx="0" dy="0" result="pf_100_offsetBlur"/><feFlood xmlns="http://www.w3.org/2000/svg" flood-color="#000000" flood-opacity="0.65"/><feComposite xmlns="http://www.w3.org/2000/svg" in2="pf_100_offsetBlur" operator="in" result="pf_100_dropShadow"/><feBlend xmlns="http://www.w3.org/2000/svg" in="SourceGraphic" in2="pf_100_dropShadow" mode="normal"/></filter></defs><g filter="url(#pLgbywqHz9mwn9FPyBA7q2wZd9Bq4KMm)"><path d=" M 50.468 78.964 C 56.114 70.626 66.313 67.725 73.23 72.491 C 80.146 77.256 81.177 87.895 75.531 96.233 C 69.885 104.571 59.686 107.471 52.77 102.706 C 45.853 97.94 44.822 87.302 50.468 78.964 Z " fill="rgb(87,41,10)"/></g><path d=" M 50.785 97.32 C 57.9 87.741 62.349 78.552 67.071 75.277 C 64.147 83.488 62.921 92.097 61.889 101.8 C 55.597 104.507 51.865 101.954 50.785 97.32 Z " fill="rgb(142,60,5)"/></g></g></svg>