<?xml version="1.0" standalone="no"?><!-- Generator: Gravit.io --><svg xmlns="http://www.w3.org/2000/svg" xmlns:xlink="http://www.w3.org/1999/xlink" style="isolation:isolate" viewBox="0 0 512 512" width="512" height="512"><defs><clipPath id="_clipPath_6d6uyY36HyWAZHQqG1pOxh5xzelMYy5R"><rect width="512" height="512"/></clipPath></defs><g clip-path="url(#_clipPath_6d6uyY36HyWAZHQqG1pOxh5xzelMYy5R)"><defs><filter id="DDqHIy44YMyRq9beP8qnKkBJ50GemIKy" x="-200%" y="-200%" width="400%" height="400%" filterUnits="objectBoundingBox" color-interpolation-filters="sRGB"><feGaussianBlur xmlns="http://www.w3.org/2000/svg" in="SourceGraphic" stdDeviation="2.146804531419514"/><feOffset xmlns="http://www.w3.org/2000/svg" dx="0" dy="0" result="pf_100_offsetBlur"/><feFlood xmlns="http://www.w3.org/2000/svg" flood-color="#000000" flood-opacity="0.65"/><feComposite xmlns="http://www.w3.org/2000/svg" in2="pf_100_offsetBlur" operator="in" result="pf_100_dropShadow"/><feBlend xmlns="http://www.w3.org/2000/svg" in="SourceGraphic" in2="pf_100_dropShadow" mode="normal"/></filter></defs><g filter="url(#DDqHIy44YMyRq9beP8qnKkBJ50GemIKy)"><circle vector-effect="non-scaling-stroke" cx="255.99999999999997" cy="255.99999999999997" r="250" fill="rgb(255,191,0)"/></g><g><path d=" M 379.969 160.836 L 379.969 174.753 C 513.044 165.655 457.452 285.731 339.796 317.411 L 339.796 331.329 C 486.626 296.875 542.188 148.929 379.969 160.836 Z " fill="rgb(157,157,157)"/><path d=" M 55.5 133 L 389.239 133 C 364.564 366.468 330.526 355.685 222.37 387 C 138.935 376.562 78.034 376.983 55.5 133 Z " fill="rgb(206,206,206)"/><path d=" M 57.864 359.164 C 54.697 354.693 54.727 350.086 57.864 345.247 L 391.603 345.247 C 394.462 350.027 394.493 354.704 391.603 359.164 L 323.619 387 L 119.668 387 L 57.864 359.164 Z " fill="rgb(149,149,149)"/><g><path d=" M 214.008 222.655 C 231.455 193.643 262.972 183.549 284.346 200.133 C 305.718 216.712 308.904 253.73 291.457 282.742 C 274.01 311.753 242.493 321.844 221.121 305.264 C 199.746 288.681 196.561 251.667 214.008 222.655 Z " fill="rgb(57,27,7)"/><path d=" M 214.987 286.524 C 236.974 253.194 250.722 221.222 265.314 209.826 C 256.278 238.396 252.49 268.351 249.301 302.112 C 229.857 311.531 218.325 302.648 214.987 286.524 Z " fill="rgb(108,46,4)"/></g><g><path d=" M 149.114 205.258 C 166.561 176.246 198.078 166.152 219.453 182.735 C 240.824 199.315 244.01 236.333 226.563 265.344 C 209.116 294.356 177.599 304.447 156.227 287.867 C 134.853 271.284 131.667 234.269 149.114 205.258 Z " fill="rgb(87,41,10)"/><path d=" M 150.093 269.127 C 172.08 235.797 185.828 203.824 200.42 192.429 C 191.384 220.999 187.596 250.953 184.407 284.715 C 164.963 294.133 153.431 285.25 150.093 269.127 Z " fill="rgb(142,60,5)"/></g></g></g></svg>