<?xml version="1.0" standalone="no"?><!-- Generator: Gravit.io --><svg xmlns="http://www.w3.org/2000/svg" xmlns:xlink="http://www.w3.org/1999/xlink" style="isolation:isolate" viewBox="0 0 332 148" width="332" height="148"><defs><clipPath id="_clipPath_yJ6lBJLRW3juuUs77nYpTWXn2sJZA9W1"><rect width="332" height="148"/></clipPath></defs><g clip-path="url(#_clipPath_yJ6lBJLRW3juuUs77nYpTWXn2sJZA9W1)"><clipPath id="_clipPath_V9B49bbrZzGQ1zjqUOMf0LXHhqQdrPia"><rect x="10" y="10" width="312" height="128" transform="matrix(1,0,0,1,0,0)" fill="rgb(255,255,255)"/></clipPath><g clip-path="url(#_clipPath_V9B49bbrZzGQ1zjqUOMf0LXHhqQdrPia)"><g><defs><filter id="Tk9IqD0m5nYwSYxg7mkMADCVwgkoGiEv" x="-200%" y="-200%" width="400%" height="400%" filterUnits="objectBoundingBox" color-interpolation-filters="sRGB"><feGaussianBlur xmlns="http://www.w3.org/2000/svg" in="SourceGraphic" stdDeviation="3.4348872502712227"/><feOffset xmlns="http://www.w3.org/2000/svg" dx="0" dy="0" result="pf_100_offsetBlur"/><feFlood xmlns="http://www.w3.org/2000/svg" flood-color="#000000" flood-opacity="0.65"/><feComposite xmlns="http://www.w3.org/2000/svg" in2="pf_100_offsetBlur" operator="in" result="pf_100_dropShadow"/><feBlend xmlns="http://www.w3.org/2000/svg" in="SourceGraphic" in2="pf_100_dropShadow" mode="normal"/></filter></defs><g filter="url(#Tk9IqD0m5nYwSYxg7mkMADCVwgkoGiEv)"><ellipse vector-effect="non-scaling-stroke" cx="166.00000000000003" cy="73.99999999999997" rx="156" ry="63.999999999999964" fill="rgb(255,191,0)"/></g><path d=" M 151 50 L 151 54 C 194.064 51.385 176.074 85.895 138 95 L 138 99 C 185.515 89.098 203.495 46.578 151 50 Z " fill="rgb(157,157,157)"/><path d=" M 46 42 L 154 42 C 146.015 109.099 135 106 100 115 C 73 112 53.292 112.121 46 42 Z " fill="rgb(206,206,206)"/><path d=" M 46.765 107 C 45.74 105.715 45.75 104.391 46.765 103 L 154.765 103 C 155.69 104.374 155.7 105.718 154.765 107 L 132.765 115 L 66.765 115 L 46.765 107 Z " fill="rgb(149,149,149)"/><g><path d=" M 97.294 67.767 C 102.94 59.429 113.139 56.528 120.056 61.294 C 126.972 66.059 128.003 76.698 122.357 85.036 C 116.711 93.374 106.512 96.274 99.596 91.509 C 92.679 86.743 91.648 76.105 97.294 67.767 Z " fill="rgb(57,27,7)"/><path d=" M 97.611 86.123 C 104.726 76.544 109.175 67.355 113.897 64.08 C 110.973 72.291 109.747 80.9 108.715 90.603 C 102.423 93.31 98.691 90.757 97.611 86.123 Z " fill="rgb(108,46,4)"/></g><g><path d=" M 76.294 62.767 C 81.94 54.429 92.139 51.528 99.056 56.294 C 105.972 61.059 107.003 71.698 101.357 80.036 C 95.711 88.374 85.512 91.274 78.596 86.509 C 71.679 81.743 70.648 71.105 76.294 62.767 Z " fill="rgb(87,41,10)"/><path d=" M 76.611 81.123 C 83.726 71.544 88.175 62.355 92.897 59.08 C 89.973 67.291 88.747 75.9 87.715 85.603 C 81.423 88.31 77.691 85.757 76.611 81.123 Z " fill="rgb(142,60,5)"/></g><path d=" M 223.568 65.192 L 223.568 65.192 L 223.568 65.192 Q 223.568 63.644 224.756 62.672 L 224.756 62.672 L 224.756 62.672 Q 225.944 61.7 227.6 61.7 L 227.6 61.7 L 227.6 61.7 Q 229.256 61.7 231.02 62.492 L 231.02 62.492 L 231.02 62.492 Q 231.2 62.06 231.866 59.99 L 231.866 59.99 L 231.866 59.99 Q 232.532 57.92 233.108 54.554 L 233.108 54.554 L 233.108 54.554 Q 233.684 51.188 233.684 49.784 L 233.684 49.784 L 233.684 49.784 Q 233.684 48.38 232.892 47.66 L 232.892 47.66 L 232.892 47.3 L 232.892 47.3 Q 234.98 46.22 237.788 46.22 L 237.788 46.22 L 239.3 46.364 L 239.3 46.364 Q 239.48 46.796 239.48 48.02 L 239.48 48.02 L 239.48 48.02 Q 239.48 52.052 238.04 56.534 L 238.04 56.534 L 238.04 56.534 Q 236.6 61.016 234.296 64.184 L 234.296 64.184 L 234.296 64.184 Q 236.888 65.552 238.58 65.552 L 238.58 65.552 L 238.58 65.552 Q 240.272 65.552 241.622 64.022 L 241.622 64.022 L 241.622 64.022 Q 242.972 62.492 243.728 60.224 L 243.728 60.224 L 243.728 60.224 Q 245.348 55.544 245.348 51.746 L 245.348 51.746 L 245.348 51.746 Q 245.348 47.948 243.332 46.112 L 243.332 46.112 L 243.332 46.112 Q 241.316 44.276 237.338 44.276 L 237.338 44.276 L 237.338 44.276 Q 233.36 44.276 229.994 46.544 L 229.994 46.544 L 229.994 46.544 Q 226.628 48.812 226.628 51.8 L 226.628 51.8 L 226.628 51.8 Q 226.628 53.06 227.24 53.672 L 227.24 53.672 L 227.24 53.672 Q 227.852 54.284 228.896 54.644 L 228.896 54.644 L 228.896 54.644 Q 228.86 56.012 228.104 57.416 L 228.104 57.416 L 228.104 57.416 Q 226.628 57.128 225.44 55.778 L 225.44 55.778 L 225.44 55.778 Q 224.252 54.428 224.252 52.088 L 224.252 52.088 L 224.252 52.088 Q 224.252 47.768 228.356 44.906 L 228.356 44.906 L 228.356 44.906 Q 232.46 42.044 238.616 42.044 L 238.616 42.044 L 238.616 42.044 Q 243.8 42.044 247.22 44.456 L 247.22 44.456 L 247.22 44.456 Q 248.948 45.68 249.902 47.822 L 249.902 47.822 L 249.902 47.822 Q 250.856 49.964 250.856 53.294 L 250.856 53.294 L 250.856 53.294 Q 250.856 56.624 249.38 60.206 L 249.38 60.206 L 249.38 60.206 Q 247.904 63.788 245.078 66.2 L 245.078 66.2 L 245.078 66.2 Q 242.252 68.612 238.994 68.612 L 238.994 68.612 L 238.994 68.612 Q 235.736 68.612 232.352 66.344 L 232.352 66.344 L 232.352 66.344 Q 229.94 68.576 227.456 68.576 L 227.456 68.576 L 227.456 68.576 Q 225.764 68.576 224.666 67.658 L 224.666 67.658 L 224.666 67.658 Q 223.568 66.74 223.568 65.192 Z  M 227.348 65.84 L 227.348 65.84 L 227.348 65.84 Q 228.68 65.84 229.724 64.616 L 229.724 64.616 L 229.724 64.616 Q 228.392 63.86 227.6 63.86 L 227.6 63.86 L 227.6 63.86 Q 225.944 63.86 225.944 64.832 L 225.944 64.832 L 225.944 64.832 Q 225.944 65.264 226.304 65.552 L 226.304 65.552 L 226.304 65.552 Q 226.664 65.84 227.348 65.84 Z  M 251.9 61.916 L 251.9 61.916 L 251.9 61.916 Q 251.9 57.416 254.618 54.806 L 254.618 54.806 L 254.618 54.806 Q 257.336 52.196 260.792 52.196 L 260.792 52.196 L 260.792 52.196 Q 262.916 52.196 264.284 53.24 L 264.284 53.24 L 264.284 53.24 Q 265.652 54.284 265.652 56.03 L 265.652 56.03 L 265.652 56.03 Q 265.652 57.776 264.77 58.964 L 264.77 58.964 L 264.77 58.964 Q 263.888 60.152 262.628 60.8 L 262.628 60.8 L 262.628 60.8 Q 260.072 62.06 257.948 62.384 L 257.948 62.384 L 257.084 62.492 L 257.084 62.492 Q 257.336 65.876 259.856 65.876 L 259.856 65.876 L 259.856 65.876 Q 260.72 65.876 261.692 65.444 L 261.692 65.444 L 261.692 65.444 Q 262.664 65.012 263.204 64.58 L 263.204 64.58 L 263.744 64.148 L 264.608 65.3 L 264.608 65.3 Q 264.32 65.696 263.456 66.344 L 263.456 66.344 L 263.456 66.344 Q 262.592 66.992 261.836 67.424 L 261.836 67.424 L 261.836 67.424 Q 259.748 68.576 257.264 68.576 L 257.264 68.576 L 257.264 68.576 Q 254.78 68.576 253.34 66.812 L 253.34 66.812 L 253.34 66.812 Q 251.9 65.048 251.9 61.916 Z  M 257.048 60.728 L 257.048 60.728 Q 258.884 60.404 259.964 59.18 L 259.964 59.18 L 259.964 59.18 Q 261.044 57.956 261.044 56.012 L 261.044 56.012 L 261.044 56.012 Q 261.044 54.068 259.892 54.068 L 259.892 54.068 L 259.892 54.068 Q 258.524 54.068 257.786 56.39 L 257.786 56.39 L 257.786 56.39 Q 257.048 58.712 257.048 60.728 L 257.048 60.728 Z  M 277.136 53.24 L 277.136 53.24 L 277.136 53.24 Q 277.208 53.168 277.532 52.304 L 277.532 52.304 L 277.532 52.304 Q 279.224 52.304 282.068 53.312 L 282.068 53.312 L 282.068 53.312 Q 281.168 56.3 280.628 59.558 L 280.628 59.558 L 280.628 59.558 Q 280.088 62.816 280.088 64.202 L 280.088 64.202 L 280.088 64.202 Q 280.088 65.588 280.376 65.588 L 280.376 65.588 L 280.376 65.588 Q 280.592 65.588 281.96 64.904 L 281.96 64.904 L 282.392 64.688 L 283.04 65.948 L 283.04 65.948 Q 282.716 66.236 282.194 66.668 L 282.194 66.668 L 282.194 66.668 Q 281.672 67.1 280.232 67.838 L 280.232 67.838 L 280.232 67.838 Q 278.792 68.576 277.64 68.576 L 277.64 68.576 L 277.64 68.576 Q 275.408 68.576 275.048 66.56 L 275.048 66.56 L 275.048 66.56 Q 272.744 68.576 270.89 68.576 L 270.89 68.576 L 270.89 68.576 Q 269.036 68.576 267.758 67.136 L 267.758 67.136 L 267.758 67.136 Q 266.48 65.696 266.48 62.6 L 266.48 62.6 L 266.48 62.6 Q 266.48 57.776 268.46 54.986 L 268.46 54.986 L 268.46 54.986 Q 270.44 52.196 273.248 52.196 L 273.248 52.196 L 273.248 52.196 Q 275.264 52.196 277.136 53.24 Z  M 273.032 65.516 L 273.032 65.516 L 273.032 65.516 Q 273.896 65.516 274.976 64.832 L 274.976 64.832 L 274.976 64.832 Q 275.228 59.756 276.668 54.788 L 276.668 54.788 L 276.668 54.788 Q 275.588 54.32 274.832 54.32 L 274.832 54.32 L 274.832 54.32 Q 273.536 54.32 272.618 56.858 L 272.618 56.858 L 272.618 56.858 Q 271.7 59.396 271.7 62.456 L 271.7 62.456 L 271.7 62.456 Q 271.7 65.516 273.032 65.516 Z  M 284.408 68.252 L 284.408 68.252 L 284.156 68.252 L 284.156 68.252 Q 284.084 67.964 284.084 66.938 L 284.084 66.938 L 284.084 66.938 Q 284.084 65.912 285.056 61.412 L 285.056 61.412 L 285.056 61.412 Q 286.028 56.912 286.028 56.264 L 286.028 56.264 L 286.028 56.264 Q 286.028 55.148 285.02 53.816 L 285.02 53.816 L 284.696 53.384 L 284.732 52.916 L 284.732 52.916 Q 286.676 52.376 290.96 52.376 L 290.96 52.376 L 290.96 52.376 Q 291.392 53.312 291.392 55.004 L 291.392 55.004 L 291.392 55.004 Q 291.788 54.356 293.048 53.276 L 293.048 53.276 L 293.048 53.276 Q 294.308 52.196 295.64 52.196 L 295.64 52.196 L 295.64 52.196 Q 297.584 52.196 297.584 55.58 L 297.584 55.58 L 297.584 55.58 Q 297.404 55.796 297.098 56.138 L 297.098 56.138 L 297.098 56.138 Q 296.792 56.48 295.874 57.092 L 295.874 57.092 L 295.874 57.092 Q 294.956 57.704 294.092 57.848 L 294.092 57.848 L 294.092 57.848 Q 294.056 57.848 293.48 56.876 L 293.48 56.876 L 293.48 56.876 Q 292.904 55.904 292.616 55.904 L 292.616 55.904 L 292.616 55.904 Q 291.716 56.228 291.032 56.984 L 291.032 56.984 L 291.032 56.984 Q 289.376 64.436 289.376 66.632 L 289.376 66.632 L 289.376 66.632 Q 289.376 67.424 289.412 67.748 L 289.412 67.748 L 289.412 67.748 Q 288.152 68.252 284.408 68.252 Z  M 196.424 65.588 L 196.964 66.956 L 196.964 66.956 Q 194.624 68.576 192.572 68.576 L 192.572 68.576 L 192.572 68.576 Q 190.52 68.576 189.674 67.604 L 189.674 67.604 L 189.674 67.604 Q 188.828 66.632 188.828 65.048 L 188.828 65.048 L 188.828 65.048 Q 188.828 63.464 190.52 56.894 L 190.52 56.894 L 190.52 56.894 Q 192.212 50.324 192.212 48.74 L 192.212 48.74 L 192.212 48.74 Q 192.212 46.76 190.808 46.76 L 190.808 46.76 L 190.808 46.76 Q 189.404 46.76 186.992 48.848 L 186.992 48.848 L 186.992 48.848 Q 186.92 49.136 185.804 53.24 L 185.804 53.24 L 185.804 53.24 Q 183.356 62.24 183.176 67.748 L 183.176 67.748 L 183.176 67.748 Q 181.772 68.288 178.1 68.288 L 178.1 68.288 L 177.632 68.288 L 177.632 68.288 Q 177.632 66.056 179.54 57.992 L 179.54 57.992 L 179.54 57.992 Q 181.448 49.928 181.448 48.596 L 181.448 48.596 L 181.448 48.596 Q 181.448 46.76 179.972 46.76 L 179.972 46.76 L 179.972 46.76 Q 178.388 46.76 175.832 48.992 L 175.832 48.992 L 175.832 48.992 Q 175.832 56.336 173.24 62.744 L 173.24 62.744 L 173.24 62.744 Q 172.016 65.768 170.054 67.658 L 170.054 67.658 L 170.054 67.658 Q 168.092 69.548 166.022 69.548 L 166.022 69.548 L 166.022 69.548 Q 163.952 69.548 162.782 68.306 L 162.782 68.306 L 162.782 68.306 Q 161.612 67.064 161.612 64.85 L 161.612 64.85 L 161.612 64.85 Q 161.612 62.636 163.196 59.63 L 163.196 59.63 L 163.196 59.63 Q 164.78 56.624 166.562 54.482 L 166.562 54.482 L 166.562 54.482 Q 168.344 52.34 170.216 50.612 L 170.216 50.612 L 170.216 50.612 Q 170.216 47.3 169.424 46.616 L 169.424 46.616 L 169.424 46.616 Q 169.028 46.292 168.29 46.292 L 168.29 46.292 L 168.29 46.292 Q 167.552 46.292 166.13 46.94 L 166.13 46.94 L 166.13 46.94 Q 164.708 47.588 163.412 48.704 L 163.412 48.704 L 162.512 47.444 L 162.512 47.444 Q 163.772 45.896 166.292 44.456 L 166.292 44.456 L 166.292 44.456 Q 168.812 43.016 170.774 43.016 L 170.774 43.016 L 170.774 43.016 Q 172.736 43.016 173.87 44.042 L 173.87 44.042 L 173.87 44.042 Q 175.004 45.068 175.472 46.652 L 175.472 46.652 L 175.472 46.652 Q 180.44 42.584 183.32 42.584 L 183.32 42.584 L 183.32 42.584 Q 184.76 42.584 185.786 43.484 L 185.786 43.484 L 185.786 43.484 Q 186.812 44.384 187.1 46.184 L 187.1 46.184 L 187.1 46.184 Q 191.348 42.584 194.192 42.584 L 194.192 42.584 L 194.192 42.584 Q 195.776 42.584 196.874 43.844 L 196.874 43.844 L 196.874 43.844 Q 197.972 45.104 197.972 47.246 L 197.972 47.246 L 197.972 47.246 Q 197.972 49.388 196.208 55.868 L 196.208 55.868 L 196.208 55.868 Q 194.444 62.348 194.444 64.058 L 194.444 64.058 L 194.444 64.058 Q 194.444 65.768 195.524 65.768 L 195.524 65.768 L 195.524 65.768 Q 195.884 65.768 196.424 65.588 L 196.424 65.588 Z  M 165.32 66.128 L 165.32 66.128 L 165.32 66.128 Q 166.76 66.128 168.182 62.546 L 168.182 62.546 L 168.182 62.546 Q 169.604 58.964 170.108 53.564 L 170.108 53.564 L 170.108 53.564 Q 167.804 55.94 165.968 59.198 L 165.968 59.198 L 165.968 59.198 Q 164.132 62.456 164.132 64.292 L 164.132 64.292 L 164.132 64.292 Q 164.132 66.128 165.32 66.128 Z  M 203.264 68.288 L 203.264 68.288 L 203.264 68.288 Q 200.276 68.288 200.276 64.976 L 200.276 64.976 L 200.276 64.976 Q 200.276 64.184 200.996 60.404 L 200.996 60.404 L 200.996 60.404 Q 201.716 56.624 201.716 54.104 L 201.716 54.104 L 201.716 54.104 Q 201.716 53.564 201.572 53.096 L 201.572 53.096 L 201.572 53.096 Q 203.516 52.34 206.9 52.34 L 206.9 52.34 L 206.9 52.34 Q 207.08 52.844 207.08 54.068 L 207.08 54.068 L 207.08 54.068 Q 207.08 55.292 206.288 58.964 L 206.288 58.964 L 206.288 58.964 Q 205.496 62.636 205.496 63.752 L 205.496 63.752 L 205.496 63.752 Q 205.496 64.868 206.072 64.868 L 206.072 64.868 L 206.072 64.868 Q 207.656 64.868 209.132 63.752 L 209.132 63.752 L 209.132 63.752 Q 209.24 62.42 210.572 52.916 L 210.572 52.916 L 210.572 52.916 Q 211.832 52.412 215.108 52.412 L 215.108 52.412 L 215.792 52.412 L 215.792 52.412 Q 215.36 54.104 214.37 60.962 L 214.37 60.962 L 214.37 60.962 Q 213.38 67.82 212.948 69.656 L 212.948 69.656 L 212.948 69.656 Q 212.516 71.492 211.778 72.896 L 211.778 72.896 L 211.778 72.896 Q 211.04 74.3 209.978 75.002 L 209.978 75.002 L 209.978 75.002 Q 208.916 75.704 207.836 75.956 L 207.836 75.956 L 207.836 75.956 Q 206.756 76.208 205.046 76.208 L 205.046 76.208 L 205.046 76.208 Q 203.336 76.208 201.806 75.11 L 201.806 75.11 L 201.806 75.11 Q 200.276 74.012 200.276 73.22 L 200.276 73.22 L 200.276 73.22 Q 200.276 72.716 201.554 71.672 L 201.554 71.672 L 201.554 71.672 Q 202.832 70.628 203.696 70.376 L 203.696 70.376 L 203.696 70.376 Q 205.532 72.212 206.396 74.372 L 206.396 74.372 L 206.396 74.372 Q 207.332 74.372 208.052 72.14 L 208.052 72.14 L 208.052 72.14 Q 208.772 69.908 209.024 65.588 L 209.024 65.588 L 209.024 65.588 Q 208.16 66.452 206.396 67.37 L 206.396 67.37 L 206.396 67.37 Q 204.632 68.288 203.264 68.288 Z " fill-rule="evenodd" fill="rgb(87,41,10)"/><path d=" M 174.96 107.169 L 174.96 107.169 L 174.96 107.169 Q 170.208 107.169 167.28 103.593 L 167.28 103.593 L 167.28 103.593 Q 164.352 100.017 164.352 94.113 L 164.352 94.113 L 164.352 94.113 Q 164.352 88.209 166.392 83.385 L 166.392 83.385 L 166.392 83.385 Q 168.432 78.561 172.224 75.537 L 172.224 75.537 L 172.224 75.537 Q 176.016 72.513 180.624 72.513 L 180.624 72.513 L 180.624 72.513 Q 182.352 72.513 183.696 73.041 L 183.696 73.041 L 183.696 73.041 Q 187.152 70.737 190.848 70.737 L 190.848 70.737 L 190.848 70.737 Q 192.576 70.737 194.088 71.241 L 194.088 71.241 L 194.088 71.241 Q 195.6 71.745 196.32 72.465 L 196.32 72.465 L 196.32 72.465 Q 195.936 74.097 195.072 75.441 L 195.072 75.441 L 195.072 75.441 Q 192.816 73.761 190.512 73.761 L 190.512 73.761 L 190.512 73.761 Q 188.208 73.761 186.288 74.673 L 186.288 74.673 L 186.288 74.673 Q 188.544 77.073 188.544 81.465 L 188.544 81.465 L 188.544 81.465 Q 188.544 85.857 186.24 89.457 L 186.24 89.457 L 186.24 89.457 Q 183.936 93.057 180.48 93.057 L 180.48 93.057 L 180.48 93.057 Q 178.416 93.057 177.144 91.329 L 177.144 91.329 L 177.144 91.329 Q 175.872 89.601 175.872 87.009 L 175.872 87.009 L 175.872 87.009 Q 175.872 80.769 180.528 75.729 L 180.528 75.729 L 180.528 75.729 Q 176.736 75.873 174.384 80.697 L 174.384 80.697 L 174.384 80.697 Q 172.032 85.521 172.032 92.337 L 172.032 92.337 L 172.032 92.337 Q 172.032 102.273 177.792 102.273 L 177.792 102.273 L 177.792 102.273 Q 181.728 102.273 186.192 97.377 L 186.192 97.377 L 187.872 98.769 L 187.872 98.769 Q 187.248 99.873 185.832 101.505 L 185.832 101.505 L 185.832 101.505 Q 184.416 103.137 183.024 104.241 L 183.024 104.241 L 183.024 104.241 Q 181.632 105.345 179.424 106.257 L 179.424 106.257 L 179.424 106.257 Q 177.216 107.169 174.96 107.169 Z  M 185.232 81.969 L 185.232 81.969 L 185.232 81.969 Q 185.232 78.033 183.456 76.593 L 183.456 76.593 L 183.456 76.593 Q 181.344 78.465 180.072 81.153 L 180.072 81.153 L 180.072 81.153 Q 178.8 83.841 178.8 86.721 L 178.8 86.721 L 178.8 86.721 Q 178.8 88.209 179.352 89.169 L 179.352 89.169 L 179.352 89.169 Q 179.904 90.129 180.768 90.129 L 180.768 90.129 L 180.768 90.129 Q 182.64 90.129 183.936 87.489 L 183.936 87.489 L 183.936 87.489 Q 185.232 84.849 185.232 81.969 Z  M 196.32 107.169 L 196.32 107.169 L 196.32 107.169 Q 193.008 107.169 191.136 104.841 L 191.136 104.841 L 191.136 104.841 Q 189.264 102.513 189.264 98.337 L 189.264 98.337 L 189.264 98.337 Q 189.264 93.009 192.12 89.169 L 192.12 89.169 L 192.12 89.169 Q 194.976 85.329 200.016 85.329 L 200.016 85.329 L 201.744 85.425 L 201.744 85.425 Q 202.56 84.993 203.568 84.993 L 203.568 84.993 L 203.568 84.993 Q 207.36 84.993 207.36 92.145 L 207.36 92.145 L 207.36 92.145 Q 209.328 92.049 211.344 91.617 L 211.344 91.617 L 212.112 91.425 L 212.4 93.297 L 212.4 93.297 Q 210.816 93.969 208.128 94.497 L 208.128 94.497 L 207.168 94.689 L 207.168 94.689 Q 206.256 99.729 203.472 103.449 L 203.472 103.449 L 203.472 103.449 Q 200.688 107.169 196.32 107.169 Z  M 198.912 103.041 L 198.912 103.041 L 198.912 103.041 Q 200.928 103.041 202.536 100.449 L 202.536 100.449 L 202.536 100.449 Q 204.144 97.857 204.768 94.977 L 204.768 94.977 L 204.768 94.977 Q 199.632 94.977 199.632 91.137 L 199.632 91.137 L 199.632 91.137 Q 199.632 89.601 200.256 88.257 L 200.256 88.257 L 200.496 87.777 L 200.496 87.777 Q 200.304 87.681 200.016 87.681 L 200.016 87.681 L 200.016 87.681 Q 199.728 87.681 199.584 87.777 L 199.584 87.777 L 199.584 87.777 Q 198.384 88.545 197.328 91.377 L 197.328 91.377 L 197.328 91.377 Q 196.272 94.209 196.272 97.857 L 196.272 97.857 L 196.272 97.857 Q 196.272 103.041 198.912 103.041 Z  M 218.784 85.905 L 223.248 85.905 L 223.248 85.905 Q 223.152 86.961 222.384 88.689 L 222.384 88.689 L 222.384 88.689 Q 220.56 88.497 218.784 88.497 L 218.784 88.497 L 218.592 88.497 L 218.592 88.497 Q 217.584 100.353 216.72 106.017 L 216.72 106.017 L 216.72 106.017 Q 215.856 111.681 214.464 113.937 L 214.464 113.937 L 214.464 113.937 Q 212.736 113.889 210.888 113.481 L 210.888 113.481 L 210.888 113.481 Q 209.04 113.073 208.368 112.641 L 208.368 112.641 L 208.368 112.641 Q 209.52 109.089 210.696 101.937 L 210.696 101.937 L 210.696 101.937 Q 211.872 94.785 212.208 88.737 L 212.208 88.737 L 212.208 88.737 Q 210.864 88.833 209.232 89.073 L 209.232 89.073 L 209.232 89.073 Q 209.088 88.449 209.088 87.801 L 209.088 87.801 L 209.088 87.801 Q 209.088 87.153 209.28 85.905 L 209.28 85.905 L 212.352 85.905 L 212.352 85.905 Q 212.448 81.729 212.784 79.569 L 212.784 79.569 L 212.784 79.569 Q 213.36 75.729 215.448 73.545 L 215.448 73.545 L 215.448 73.545 Q 217.536 71.361 220.848 71.361 L 220.848 71.361 L 220.848 71.361 Q 222.96 71.361 224.184 72.297 L 224.184 72.297 L 224.184 72.297 Q 225.408 73.233 225.408 75.249 L 225.408 75.249 L 225.408 75.249 Q 225.408 77.265 223.584 80.457 L 223.584 80.457 L 223.584 80.457 Q 221.76 83.649 218.784 85.905 L 218.784 85.905 Z  M 218.88 82.881 L 218.88 82.881 Q 220.752 81.297 221.808 79.377 L 221.808 79.377 L 221.808 79.377 Q 222.864 77.457 222.864 75.897 L 222.864 75.897 L 222.864 75.897 Q 222.864 74.337 221.856 74.337 L 221.856 74.337 L 221.856 74.337 Q 219.744 74.337 219.168 79.185 L 219.168 79.185 L 219.168 79.185 Q 218.976 80.817 218.88 82.881 L 218.88 82.881 Z  M 232.848 85.905 L 237.312 85.905 L 237.312 85.905 Q 237.216 86.961 236.448 88.689 L 236.448 88.689 L 236.448 88.689 Q 234.624 88.497 232.848 88.497 L 232.848 88.497 L 232.656 88.497 L 232.656 88.497 Q 231.648 100.353 230.784 106.017 L 230.784 106.017 L 230.784 106.017 Q 229.92 111.681 228.528 113.937 L 228.528 113.937 L 228.528 113.937 Q 226.8 113.889 224.952 113.481 L 224.952 113.481 L 224.952 113.481 Q 223.104 113.073 222.432 112.641 L 222.432 112.641 L 222.432 112.641 Q 223.584 109.089 224.76 101.937 L 224.76 101.937 L 224.76 101.937 Q 225.936 94.785 226.272 88.737 L 226.272 88.737 L 226.272 88.737 Q 224.928 88.833 223.296 89.073 L 223.296 89.073 L 223.296 89.073 Q 223.152 88.449 223.152 87.801 L 223.152 87.801 L 223.152 87.801 Q 223.152 87.153 223.344 85.905 L 223.344 85.905 L 226.416 85.905 L 226.416 85.905 Q 226.512 81.729 226.848 79.569 L 226.848 79.569 L 226.848 79.569 Q 227.424 75.729 229.512 73.545 L 229.512 73.545 L 229.512 73.545 Q 231.6 71.361 234.912 71.361 L 234.912 71.361 L 234.912 71.361 Q 237.024 71.361 238.248 72.297 L 238.248 72.297 L 238.248 72.297 Q 239.472 73.233 239.472 75.249 L 239.472 75.249 L 239.472 75.249 Q 239.472 77.265 237.648 80.457 L 237.648 80.457 L 237.648 80.457 Q 235.824 83.649 232.848 85.905 L 232.848 85.905 Z  M 232.944 82.881 L 232.944 82.881 Q 234.816 81.297 235.872 79.377 L 235.872 79.377 L 235.872 79.377 Q 236.928 77.457 236.928 75.897 L 236.928 75.897 L 236.928 75.897 Q 236.928 74.337 235.92 74.337 L 235.92 74.337 L 235.92 74.337 Q 233.808 74.337 233.232 79.185 L 233.232 79.185 L 233.232 79.185 Q 233.04 80.817 232.944 82.881 L 232.944 82.881 Z  M 237.168 98.289 L 237.168 98.289 L 237.168 98.289 Q 237.168 92.289 240.792 88.809 L 240.792 88.809 L 240.792 88.809 Q 244.416 85.329 249.024 85.329 L 249.024 85.329 L 249.024 85.329 Q 251.856 85.329 253.68 86.721 L 253.68 86.721 L 253.68 86.721 Q 255.504 88.113 255.504 90.441 L 255.504 90.441 L 255.504 90.441 Q 255.504 92.769 254.328 94.353 L 254.328 94.353 L 254.328 94.353 Q 253.152 95.937 251.472 96.801 L 251.472 96.801 L 251.472 96.801 Q 248.064 98.481 245.232 98.913 L 245.232 98.913 L 244.08 99.057 L 244.08 99.057 Q 244.416 103.569 247.776 103.569 L 247.776 103.569 L 247.776 103.569 Q 248.928 103.569 250.224 102.993 L 250.224 102.993 L 250.224 102.993 Q 251.52 102.417 252.24 101.841 L 252.24 101.841 L 252.96 101.265 L 254.112 102.801 L 254.112 102.801 Q 253.728 103.329 252.576 104.193 L 252.576 104.193 L 252.576 104.193 Q 251.424 105.057 250.416 105.633 L 250.416 105.633 L 250.416 105.633 Q 247.632 107.169 244.32 107.169 L 244.32 107.169 L 244.32 107.169 Q 241.008 107.169 239.088 104.817 L 239.088 104.817 L 239.088 104.817 Q 237.168 102.465 237.168 98.289 Z  M 244.032 96.705 L 244.032 96.705 Q 246.48 96.273 247.92 94.641 L 247.92 94.641 L 247.92 94.641 Q 249.36 93.009 249.36 90.417 L 249.36 90.417 L 249.36 90.417 Q 249.36 87.825 247.824 87.825 L 247.824 87.825 L 247.824 87.825 Q 246 87.825 245.016 90.921 L 245.016 90.921 L 245.016 90.921 Q 244.032 94.017 244.032 96.705 L 244.032 96.705 Z  M 256.32 98.289 L 256.32 98.289 L 256.32 98.289 Q 256.32 92.289 259.944 88.809 L 259.944 88.809 L 259.944 88.809 Q 263.568 85.329 268.176 85.329 L 268.176 85.329 L 268.176 85.329 Q 271.008 85.329 272.832 86.721 L 272.832 86.721 L 272.832 86.721 Q 274.656 88.113 274.656 90.441 L 274.656 90.441 L 274.656 90.441 Q 274.656 92.769 273.48 94.353 L 273.48 94.353 L 273.48 94.353 Q 272.304 95.937 270.624 96.801 L 270.624 96.801 L 270.624 96.801 Q 267.216 98.481 264.384 98.913 L 264.384 98.913 L 263.232 99.057 L 263.232 99.057 Q 263.568 103.569 266.928 103.569 L 266.928 103.569 L 266.928 103.569 Q 268.08 103.569 269.376 102.993 L 269.376 102.993 L 269.376 102.993 Q 270.672 102.417 271.392 101.841 L 271.392 101.841 L 272.112 101.265 L 273.264 102.801 L 273.264 102.801 Q 272.88 103.329 271.728 104.193 L 271.728 104.193 L 271.728 104.193 Q 270.576 105.057 269.568 105.633 L 269.568 105.633 L 269.568 105.633 Q 266.784 107.169 263.472 107.169 L 263.472 107.169 L 263.472 107.169 Q 260.16 107.169 258.24 104.817 L 258.24 104.817 L 258.24 104.817 Q 256.32 102.465 256.32 98.289 Z  M 263.184 96.705 L 263.184 96.705 Q 265.632 96.273 267.072 94.641 L 267.072 94.641 L 267.072 94.641 Q 268.512 93.009 268.512 90.417 L 268.512 90.417 L 268.512 90.417 Q 268.512 87.825 266.976 87.825 L 266.976 87.825 L 266.976 87.825 Q 265.152 87.825 264.168 90.921 L 264.168 90.921 L 264.168 90.921 Q 263.184 94.017 263.184 96.705 L 263.184 96.705 Z " fill-rule="evenodd" fill="rgb(57,27,7)"/></g></g></g></svg>